<svg width="16" height="12" viewBox="0 0 16 12" fill="none" xmlns="http://www.w3.org/2000/svg">
<path d="M14.3596 0.536913C14.2958 0.530339 14.2315 0.530339 14.1677 0.536913H1.0606C0.976593 0.538208 0.893145 0.550804 0.8125 0.574362L7.5767 7.31048L14.3596 0.536913Z" fill="white"/>
<path d="M15.0523 1.1875L8.23658 7.97511C8.06117 8.14948 7.82388 8.24735 7.57655 8.24735C7.32921 8.24735 7.09192 8.14948 6.91651 7.97511L0.161674 1.23899C0.140908 1.31531 0.129898 1.39396 0.128906 1.47305V10.8353C0.128906 11.0836 0.227544 11.3217 0.403119 11.4973C0.578695 11.6728 0.816826 11.7715 1.06513 11.7715H14.1722C14.4205 11.7715 14.6587 11.6728 14.8342 11.4973C15.0098 11.3217 15.1084 11.0836 15.1084 10.8353V1.47305C15.1047 1.37552 15.0858 1.27917 15.0523 1.1875ZM1.70644 10.8353H1.05577V10.1659L4.45893 6.79079L5.11897 7.45082L1.70644 10.8353ZM14.1629 10.8353H13.5075L10.095 7.45082L10.755 6.79079L14.1582 10.1659L14.1629 10.8353Z" fill="white"/>
</svg>
