<svg width="15" height="14" viewBox="0 0 15 14" fill="none" xmlns="http://www.w3.org/2000/svg">
<path d="M12.7657 6.63754H14.1699C14.1699 3.03562 11.4506 0.319092 7.84375 0.319092V1.72335C10.6958 1.72335 12.7657 3.78971 12.7657 6.63754Z" fill="white"/>
<path d="M7.85155 4.5319C9.32813 4.5319 9.95794 5.1617 9.95794 6.63828H11.3622C11.3622 4.37392 10.1159 3.12764 7.85155 3.12764V4.5319ZM10.2542 8.35358C10.1193 8.23095 9.94203 8.16555 9.7598 8.17119C9.57757 8.17682 9.40466 8.25304 9.27757 8.38377L7.59738 10.1117C7.19296 10.0345 6.37989 9.781 5.54296 8.94617C4.70602 8.10853 4.45255 7.29336 4.37743 6.89175L6.10396 5.21085C6.23484 5.08386 6.31118 4.91092 6.31681 4.72864C6.32245 4.54635 6.25694 4.36903 6.13415 4.23419L3.53979 1.38145C3.41694 1.24619 3.24621 1.16414 3.06385 1.15274C2.88149 1.14133 2.70187 1.20146 2.56313 1.32036L1.03951 2.62702C0.91812 2.74885 0.845666 2.911 0.835893 3.0827C0.825361 3.25824 0.624553 7.41624 3.84872 10.6418C6.66145 13.4538 10.1847 13.6596 11.1551 13.6596C11.2969 13.6596 11.384 13.6553 11.4071 13.6539C11.5788 13.6443 11.7409 13.5716 11.8621 13.4496L13.1681 11.9253C13.287 11.7866 13.3473 11.6071 13.336 11.4247C13.3248 11.2424 13.2428 11.0716 13.1077 10.9486L10.2542 8.35358Z" fill="white"/>
</svg>
