<svg width="12" height="15" viewBox="0 0 12 15" fill="none" xmlns="http://www.w3.org/2000/svg">
<path d="M5.8514 0.340332C4.36221 0.342057 2.93452 0.923836 1.88151 1.95805C0.828493 2.99226 0.236138 4.39445 0.234381 5.85705C0.232597 7.05228 0.630115 8.21509 1.36595 9.16708C1.36595 9.16708 1.51915 9.36518 1.54417 9.39377L5.8514 14.3829L10.1607 9.39126C10.1831 9.36468 10.3368 9.16708 10.3368 9.16708L10.3373 9.16558C11.0728 8.214 11.4702 7.05173 11.4684 5.85705C11.4667 4.39445 10.8743 2.99226 9.82129 1.95805C8.76827 0.923836 7.34058 0.342057 5.8514 0.340332ZM5.8514 7.86313C5.44742 7.86313 5.05251 7.74547 4.71662 7.52504C4.38072 7.30461 4.11892 6.99131 3.96433 6.62474C3.80973 6.25818 3.76928 5.85482 3.84809 5.46568C3.9269 5.07654 4.12144 4.71909 4.40709 4.43854C4.69275 4.15798 5.0567 3.96692 5.45291 3.88952C5.84913 3.81211 6.25982 3.85184 6.63305 4.00367C7.00627 4.15551 7.32528 4.41263 7.54972 4.74253C7.77415 5.07243 7.89395 5.46028 7.89395 5.85705C7.89327 6.38889 7.67786 6.89876 7.29495 7.27483C6.91205 7.6509 6.39291 7.86246 5.8514 7.86313Z" fill="white"/>
</svg>
